<svg width="392" height="294" viewBox="0 0 392 294" fill="none" xmlns="http://www.w3.org/2000/svg">
<g clip-path="url(#clip0_574_6498)">
<rect x="184" y="118" width="16" height="32" fill="#294C06"/>
<rect x="152" y="102" width="32" height="16" fill="#294C06"/>
<path d="M168 150C164.835 150 161.742 149.062 159.111 147.304C156.48 145.545 154.429 143.047 153.218 140.123C152.007 137.199 151.69 133.982 152.307 130.879C152.925 127.775 154.449 124.924 156.686 122.686C158.924 120.449 161.775 118.925 164.879 118.307C167.982 117.69 171.199 118.007 174.123 119.218C177.047 120.429 179.545 122.48 181.304 125.111C183.062 127.742 184 130.836 184 134L168 134L168 150Z" fill="#95F037"/>
<path d="M184 102C188.243 102 192.313 103.686 195.314 106.686C198.314 109.687 200 113.757 200 118L184 118L184 102Z" fill="#95F037"/>
<circle cx="176" cy="142" r="8" fill="#294C06"/>
<rect x="216" y="118" width="16" height="32" fill="#294C06"/>
<path d="M216 134C212.835 134 209.742 133.062 207.111 131.304C204.48 129.545 202.429 127.047 201.218 124.123C200.007 121.199 199.69 117.982 200.307 114.879C200.925 111.775 202.449 108.924 204.686 106.686C206.924 104.449 209.775 102.925 212.879 102.307C215.982 101.69 219.199 102.007 222.123 103.218C225.047 104.429 227.545 106.48 229.304 109.111C231.062 111.742 232 114.836 232 118L216 118L216 134Z" fill="#95F037"/>
<path d="M248 118C248 120.101 247.586 122.182 246.782 124.123C245.978 126.064 244.799 127.828 243.314 129.314C241.828 130.799 240.064 131.978 238.123 132.782C236.182 133.586 234.101 134 232 134L232 118H248Z" fill="#95F037"/>
<circle cx="208" cy="142" r="8" fill="#95F037"/>
<circle cx="240" cy="110" r="8" fill="#294C06"/>
<circle cx="240" cy="142" r="8" fill="#95F037"/>
<rect x="264" y="118" width="16" height="32" fill="#294C06"/>
<path d="M264 118C264 113.757 265.686 109.687 268.686 106.686C271.687 103.686 275.757 102 280 102L280 118L264 118Z" fill="#95F037"/>
<path d="M248 118C252.243 118 256.313 119.686 259.314 122.686C262.314 125.687 264 129.757 264 134C264 138.243 262.314 142.313 259.314 145.314C256.313 148.314 252.243 150 248 150L248 134L248 118Z" fill="#95F037"/>
<path d="M296 102C296 104.101 295.586 106.182 294.782 108.123C293.978 110.064 292.799 111.828 291.314 113.314C289.828 114.799 288.064 115.978 286.123 116.782C284.182 117.586 282.101 118 280 118L280 102H296Z" fill="#294C06"/>
<circle cx="288" cy="142" r="8" fill="#294C06"/>
<path d="M264 110C264 114.418 260.418 118 256 118C251.582 118 248 114.418 248 110C248 105.582 251.582 102 256 102C260.418 102 264 105.582 264 110Z" fill="#294C06"/>
<circle cx="288" cy="126" r="8" fill="#95F037"/>
<rect x="296" y="134" width="32" height="16" fill="#95F037"/>
<rect x="328" y="102" width="16" height="32" fill="#95F037"/>
<path d="M328 118C328 121.165 327.062 124.258 325.304 126.889C323.545 129.52 321.047 131.571 318.123 132.782C315.199 133.993 311.982 134.31 308.879 133.693C305.775 133.075 302.924 131.551 300.686 129.314C298.449 127.076 296.925 124.225 296.307 121.121C295.69 118.018 296.007 114.801 297.218 111.877C298.429 108.953 300.48 106.455 303.111 104.696C305.742 102.938 308.836 102 312 102L312 118H328Z" fill="#294C06"/>
<path d="M328 134C330.101 134 332.182 134.414 334.123 135.218C336.064 136.022 337.828 137.201 339.314 138.686C340.799 140.172 341.978 141.936 342.782 143.877C343.586 145.818 344 147.899 344 150L328 150V134Z" fill="#294C06"/>
<circle cx="320" cy="110" r="8" fill="#95F037"/>
<rect x="344" y="102" width="16" height="16" fill="#294C06"/>
<rect x="360" y="118" width="16" height="32" fill="#294C06"/>
<circle cx="352" cy="142" r="8" fill="#294C06"/>
<path d="M344 118C348.243 118 352.313 119.686 355.314 122.686C358.314 125.687 360 129.757 360 134H344L344 118Z" fill="#95F037"/>
<path d="M392 102C392 106.243 390.314 110.313 387.314 113.314C384.313 116.314 380.243 118 376 118C371.757 118 367.687 116.314 364.686 113.314C361.686 110.313 360 106.243 360 102L376 102H392Z" fill="#95F037"/>
<path d="M376 118C380.243 118 384.313 119.686 387.314 122.686C390.314 125.687 392 129.757 392 134C392 138.243 390.314 142.313 387.314 145.314C384.313 148.314 380.243 150 376 150L376 134V118Z" fill="#95F037"/>
<rect x="184" y="182" width="16" height="16" fill="#95F037"/>
<rect x="152" y="166" width="16" height="32" fill="#294C06"/>
<path d="M184 182C180.835 182 177.742 181.062 175.111 179.304C172.48 177.545 170.429 175.047 169.218 172.123C168.007 169.199 167.69 165.982 168.307 162.879C168.925 159.775 170.449 156.924 172.686 154.686C174.924 152.449 177.775 150.925 180.879 150.307C183.982 149.69 187.199 150.007 190.123 151.218C193.047 152.429 195.545 154.48 197.304 157.111C199.062 159.742 200 162.836 200 166L184 166L184 182Z" fill="#95F037"/>
<path d="M152 166C152 161.757 153.686 157.687 156.686 154.686C159.687 151.686 163.757 150 168 150L168 166L152 166Z" fill="#95F037"/>
<circle cx="176" cy="190" r="8" fill="#294C06"/>
<circle cx="192" cy="174" r="8" fill="#95F037"/>
<rect x="232" y="182" width="16" height="16" fill="#95F037"/>
<rect x="200" y="166" width="16" height="32" fill="#294C06"/>
<path d="M232 182C228.835 182 225.742 181.062 223.111 179.304C220.48 177.545 218.429 175.047 217.218 172.123C216.007 169.199 215.69 165.982 216.307 162.879C216.925 159.775 218.449 156.924 220.686 154.686C222.924 152.449 225.775 150.925 228.879 150.307C231.982 149.69 235.199 150.007 238.123 151.218C241.047 152.429 243.545 154.48 245.304 157.111C247.062 159.742 248 162.836 248 166L232 166L232 182Z" fill="#95F037"/>
<path d="M200 166C200 161.757 201.686 157.687 204.686 154.686C207.687 151.686 211.757 150 216 150L216 166L200 166Z" fill="#95F037"/>
<circle cx="224" cy="190" r="8" fill="#294C06"/>
<circle cx="240" cy="174" r="8" fill="#95F037"/>
<rect x="312" y="166" width="16" height="32" fill="#294C06"/>
<path d="M312 182C308.835 182 305.742 181.062 303.111 179.304C300.48 177.545 298.429 175.047 297.218 172.123C296.007 169.199 295.69 165.982 296.307 162.879C296.925 159.775 298.449 156.924 300.686 154.686C302.924 152.449 305.775 150.925 308.879 150.307C311.982 149.69 315.199 150.007 318.123 151.218C321.047 152.429 323.545 154.48 325.304 157.111C327.062 159.742 328 162.836 328 166L312 166L312 182Z" fill="#95F037"/>
<path d="M344 166C344 168.101 343.586 170.182 342.782 172.123C341.978 174.064 340.799 175.828 339.314 177.314C337.828 178.799 336.064 179.978 334.123 180.782C332.182 181.586 330.101 182 328 182L328 166H344Z" fill="#95F037"/>
<circle cx="304" cy="190" r="8" fill="#95F037"/>
<circle cx="336" cy="158" r="8" fill="#294C06"/>
<circle cx="336" cy="190" r="8" fill="#95F037"/>
<path d="M376 150H392V182H376V150Z" fill="#294C06"/>
<path d="M344 198C344 193.757 345.686 189.687 348.686 186.686C351.687 183.686 355.757 182 360 182C364.243 182 368.313 183.686 371.314 186.686C374.314 189.687 376 193.757 376 198H360L344 198Z" fill="#95F037"/>
<path d="M360 150C364.243 150 368.313 151.686 371.314 154.686C374.314 157.687 376 161.757 376 166L360 166L360 150Z" fill="#95F037"/>
<path d="M360 166C364.243 166 368.313 167.686 371.314 170.686C374.314 173.687 376 177.757 376 182L360 182L360 166Z" fill="#294C06"/>
<path d="M360 166C357.899 166 355.818 165.586 353.877 164.782C351.936 163.978 350.172 162.799 348.686 161.314C347.201 159.828 346.022 158.064 345.218 156.123C344.414 154.182 344 152.101 344 150L360 150V166Z" fill="#294C06"/>
<path d="M360 182C357.899 182 355.818 181.586 353.877 180.782C351.936 179.978 350.172 178.799 348.686 177.314C347.201 175.828 346.022 174.064 345.218 172.123C344.414 170.182 344 168.101 344 166L360 166V182Z" fill="#95F037"/>
<circle cx="384" cy="190" r="8" fill="#294C06"/>
<path d="M280 166C280 162.835 279.062 159.742 277.304 157.111C275.545 154.48 273.047 152.429 270.123 151.218C267.199 150.007 263.982 149.69 260.879 150.307C257.775 150.925 254.924 152.449 252.686 154.686C250.449 156.924 248.925 159.775 248.307 162.879C247.69 165.982 248.007 169.199 249.218 172.123C250.429 175.047 252.48 177.545 255.111 179.304C257.742 181.062 260.835 182 264 182L264 166H280Z" fill="#294C06"/>
<path d="M280 198C276.835 198 273.742 197.062 271.111 195.304C268.48 193.545 266.429 191.047 265.218 188.123C264.007 185.199 263.69 181.982 264.307 178.879C264.925 175.775 266.449 172.924 268.686 170.686C270.924 168.449 273.775 166.925 276.879 166.307C279.982 165.69 283.199 166.007 286.123 167.218C289.047 168.429 291.545 170.48 293.304 173.111C295.062 175.742 296 178.836 296 182L280 182L280 198Z" fill="#95F037"/>
<path d="M280 150C284.243 150 288.313 151.686 291.314 154.686C294.314 157.687 296 161.757 296 166L280 166L280 150Z" fill="#95F037"/>
<path d="M248 198C248 193.757 249.686 189.687 252.686 186.686C255.687 183.686 259.757 182 264 182L264 198L248 198Z" fill="#95F037"/>
<circle cx="288" cy="190" r="8" fill="#294C06"/>
</g>
<g clip-path="url(#clip1_574_6498)">
<rect x="40" y="214" width="16" height="32" fill="#294C06"/>
<rect x="8" y="198" width="32" height="16" fill="#294C06"/>
<path d="M24 246C20.8355 246 17.7421 245.062 15.1109 243.304C12.4797 241.545 10.4289 239.047 9.21793 236.123C8.00693 233.199 7.69007 229.982 8.30744 226.879C8.9248 223.775 10.4487 220.924 12.6863 218.686C14.9239 216.449 17.7749 214.925 20.8786 214.307C23.9823 213.69 27.1993 214.007 30.1229 215.218C33.0466 216.429 35.5454 218.48 37.3035 221.111C39.0616 223.742 40 226.836 40 230L24 230L24 246Z" fill="#95F037"/>
<path d="M40 198C44.2435 198 48.3131 199.686 51.3137 202.686C54.3143 205.687 56 209.757 56 214L40 214L40 198Z" fill="#95F037"/>
<circle cx="32" cy="238" r="8" fill="#294C06"/>
<rect x="72" y="214" width="16" height="32" fill="#294C06"/>
<path d="M72 230C68.8355 230 65.7421 229.062 63.1109 227.304C60.4797 225.545 58.4289 223.047 57.2179 220.123C56.0069 217.199 55.6901 213.982 56.3074 210.879C56.9248 207.775 58.4487 204.924 60.6863 202.686C62.9239 200.449 65.7749 198.925 68.8786 198.307C71.9823 197.69 75.1993 198.007 78.1229 199.218C81.0466 200.429 83.5454 202.48 85.3035 205.111C87.0616 207.742 88 210.836 88 214L72 214L72 230Z" fill="#95F037"/>
<path d="M104 214C104 216.101 103.586 218.182 102.782 220.123C101.978 222.064 100.799 223.828 99.3137 225.314C97.828 226.799 96.0641 227.978 94.1229 228.782C92.1817 229.586 90.1011 230 88 230L88 214H104Z" fill="#95F037"/>
<circle cx="64" cy="238" r="8" fill="#95F037"/>
<circle cx="96" cy="206" r="8" fill="#294C06"/>
<circle cx="96" cy="238" r="8" fill="#95F037"/>
<rect x="120" y="214" width="16" height="32" fill="#294C06"/>
<path d="M120 214C120 209.757 121.686 205.687 124.686 202.686C127.687 199.686 131.757 198 136 198L136 214L120 214Z" fill="#95F037"/>
<path d="M104 214C108.243 214 112.313 215.686 115.314 218.686C118.314 221.687 120 225.757 120 230C120 234.243 118.314 238.313 115.314 241.314C112.313 244.314 108.243 246 104 246L104 230L104 214Z" fill="#95F037"/>
<path d="M152 198C152 200.101 151.586 202.182 150.782 204.123C149.978 206.064 148.799 207.828 147.314 209.314C145.828 210.799 144.064 211.978 142.123 212.782C140.182 213.586 138.101 214 136 214L136 198H152Z" fill="#294C06"/>
<circle cx="144" cy="238" r="8" fill="#294C06"/>
<path d="M120 206C120 210.418 116.418 214 112 214C107.582 214 104 210.418 104 206C104 201.582 107.582 198 112 198C116.418 198 120 201.582 120 206Z" fill="#294C06"/>
<circle cx="144" cy="222" r="8" fill="#95F037"/>
<rect x="152" y="230" width="32" height="16" fill="#95F037"/>
<rect x="184" y="198" width="16" height="32" fill="#95F037"/>
<path d="M184 214C184 217.165 183.062 220.258 181.304 222.889C179.545 225.52 177.047 227.571 174.123 228.782C171.199 229.993 167.982 230.31 164.879 229.693C161.775 229.075 158.924 227.551 156.686 225.314C154.449 223.076 152.925 220.225 152.307 217.121C151.69 214.018 152.007 210.801 153.218 207.877C154.429 204.953 156.48 202.455 159.111 200.696C161.742 198.938 164.836 198 168 198L168 214H184Z" fill="#294C06"/>
<path d="M184 230C186.101 230 188.182 230.414 190.123 231.218C192.064 232.022 193.828 233.201 195.314 234.686C196.799 236.172 197.978 237.936 198.782 239.877C199.586 241.818 200 243.899 200 246L184 246V230Z" fill="#294C06"/>
<circle cx="176" cy="206" r="8" fill="#95F037"/>
<rect x="200" y="198" width="16" height="16" fill="#294C06"/>
<rect x="216" y="214" width="16" height="32" fill="#294C06"/>
<circle cx="208" cy="238" r="8" fill="#294C06"/>
<path d="M200 214C204.243 214 208.313 215.686 211.314 218.686C214.314 221.687 216 225.757 216 230H200L200 214Z" fill="#95F037"/>
<path d="M248 198C248 202.243 246.314 206.313 243.314 209.314C240.313 212.314 236.243 214 232 214C227.757 214 223.687 212.314 220.686 209.314C217.686 206.313 216 202.243 216 198L232 198H248Z" fill="#95F037"/>
<path d="M232 214C236.243 214 240.313 215.686 243.314 218.686C246.314 221.687 248 225.757 248 230C248 234.243 246.314 238.313 243.314 241.314C240.313 244.314 236.243 246 232 246L232 230V214Z" fill="#95F037"/>
<rect x="40" y="278" width="16" height="16" fill="#95F037"/>
<rect x="8" y="262" width="16" height="32" fill="#294C06"/>
<path d="M40 278C36.8355 278 33.7421 277.062 31.1109 275.304C28.4797 273.545 26.4289 271.047 25.2179 268.123C24.0069 265.199 23.6901 261.982 24.3074 258.879C24.9248 255.775 26.4487 252.924 28.6863 250.686C30.9239 248.449 33.7749 246.925 36.8786 246.307C39.9823 245.69 43.1993 246.007 46.1229 247.218C49.0466 248.429 51.5454 250.48 53.3035 253.111C55.0616 255.742 56 258.836 56 262L40 262L40 278Z" fill="#95F037"/>
<path d="M8 262C8 257.757 9.68571 253.687 12.6863 250.686C15.6869 247.686 19.7565 246 24 246L24 262L8 262Z" fill="#95F037"/>
<circle cx="32" cy="286" r="8" fill="#294C06"/>
<circle cx="48" cy="270" r="8" fill="#95F037"/>
<rect x="88" y="278" width="16" height="16" fill="#95F037"/>
<rect x="56" y="262" width="16" height="32" fill="#294C06"/>
<path d="M88 278C84.8355 278 81.7421 277.062 79.1109 275.304C76.4797 273.545 74.4289 271.047 73.2179 268.123C72.0069 265.199 71.6901 261.982 72.3074 258.879C72.9248 255.775 74.4487 252.924 76.6863 250.686C78.9239 248.449 81.7749 246.925 84.8786 246.307C87.9823 245.69 91.1993 246.007 94.1229 247.218C97.0466 248.429 99.5454 250.48 101.304 253.111C103.062 255.742 104 258.836 104 262L88 262L88 278Z" fill="#95F037"/>
<path d="M56 262C56 257.757 57.6857 253.687 60.6863 250.686C63.6869 247.686 67.7565 246 72 246L72 262L56 262Z" fill="#95F037"/>
<circle cx="80" cy="286" r="8" fill="#294C06"/>
<circle cx="96" cy="270" r="8" fill="#95F037"/>
<rect x="168" y="262" width="16" height="32" fill="#294C06"/>
<path d="M168 278C164.835 278 161.742 277.062 159.111 275.304C156.48 273.545 154.429 271.047 153.218 268.123C152.007 265.199 151.69 261.982 152.307 258.879C152.925 255.775 154.449 252.924 156.686 250.686C158.924 248.449 161.775 246.925 164.879 246.307C167.982 245.69 171.199 246.007 174.123 247.218C177.047 248.429 179.545 250.48 181.304 253.111C183.062 255.742 184 258.836 184 262L168 262L168 278Z" fill="#95F037"/>
<path d="M200 262C200 264.101 199.586 266.182 198.782 268.123C197.978 270.064 196.799 271.828 195.314 273.314C193.828 274.799 192.064 275.978 190.123 276.782C188.182 277.586 186.101 278 184 278L184 262H200Z" fill="#95F037"/>
<circle cx="160" cy="286" r="8" fill="#95F037"/>
<circle cx="192" cy="254" r="8" fill="#294C06"/>
<circle cx="192" cy="286" r="8" fill="#95F037"/>
<path d="M232 246H248V278H232V246Z" fill="#294C06"/>
<path d="M200 294C200 289.757 201.686 285.687 204.686 282.686C207.687 279.686 211.757 278 216 278C220.243 278 224.313 279.686 227.314 282.686C230.314 285.687 232 289.757 232 294H216L200 294Z" fill="#95F037"/>
<path d="M216 246C220.243 246 224.313 247.686 227.314 250.686C230.314 253.687 232 257.757 232 262L216 262L216 246Z" fill="#95F037"/>
<path d="M216 262C220.243 262 224.313 263.686 227.314 266.686C230.314 269.687 232 273.757 232 278L216 278L216 262Z" fill="#294C06"/>
<path d="M216 262C213.899 262 211.818 261.586 209.877 260.782C207.936 259.978 206.172 258.799 204.686 257.314C203.201 255.828 202.022 254.064 201.218 252.123C200.414 250.182 200 248.101 200 246L216 246V262Z" fill="#294C06"/>
<path d="M216 278C213.899 278 211.818 277.586 209.877 276.782C207.936 275.978 206.172 274.799 204.686 273.314C203.201 271.828 202.022 270.064 201.218 268.123C200.414 266.182 200 264.101 200 262L216 262V278Z" fill="#95F037"/>
<circle cx="240" cy="286" r="8" fill="#294C06"/>
<path d="M136 262C136 258.835 135.062 255.742 133.304 253.111C131.545 250.48 129.047 248.429 126.123 247.218C123.199 246.007 119.982 245.69 116.879 246.307C113.775 246.925 110.924 248.449 108.686 250.686C106.449 252.924 104.925 255.775 104.307 258.879C103.69 261.982 104.007 265.199 105.218 268.123C106.429 271.047 108.48 273.545 111.111 275.304C113.742 277.062 116.835 278 120 278L120 262H136Z" fill="#294C06"/>
<path d="M136 294C132.835 294 129.742 293.062 127.111 291.304C124.48 289.545 122.429 287.047 121.218 284.123C120.007 281.199 119.69 277.982 120.307 274.879C120.925 271.775 122.449 268.924 124.686 266.686C126.924 264.449 129.775 262.925 132.879 262.307C135.982 261.69 139.199 262.007 142.123 263.218C145.047 264.429 147.545 266.48 149.304 269.111C151.062 271.742 152 274.836 152 278L136 278L136 294Z" fill="#95F037"/>
<path d="M136 246C140.243 246 144.313 247.686 147.314 250.686C150.314 253.687 152 257.757 152 262L136 262L136 246Z" fill="#95F037"/>
<path d="M104 294C104 289.757 105.686 285.687 108.686 282.686C111.687 279.686 115.757 278 120 278L120 294L104 294Z" fill="#95F037"/>
<circle cx="144" cy="286" r="8" fill="#294C06"/>
</g>
<g clip-path="url(#clip2_574_6498)">
<circle cx="24" cy="118" r="16" fill="#294C06"/>
<path d="M40 118C43.1645 118 46.2579 118.938 48.8891 120.696C51.5203 122.455 53.5711 124.953 54.7821 127.877C55.9931 130.801 56.3099 134.018 55.6926 137.121C55.0752 140.225 53.5513 143.076 51.3137 145.314C49.0761 147.551 46.2251 149.075 43.1214 149.693C40.0177 150.31 36.8007 149.993 33.8771 148.782C30.9534 147.571 28.4546 145.52 26.6965 142.889C24.9384 140.258 24 137.165 24 134L40 134L40 118Z" fill="#95F037"/>
<circle cx="16" cy="142" r="8" fill="#294C06"/>
<rect x="40" y="102" width="16" height="16" fill="#95F037"/>
<rect x="56" y="102" width="16" height="16" fill="#294C06"/>
<rect x="72" y="118" width="16" height="32" fill="#294C06"/>
<circle cx="64" cy="142" r="8" fill="#294C06"/>
<path d="M56 118C60.2435 118 64.3131 119.686 67.3137 122.686C70.3143 125.687 72 129.757 72 134H56L56 118Z" fill="#95F037"/>
<path d="M104 102C104 106.243 102.314 110.313 99.3137 113.314C96.3131 116.314 92.2435 118 88 118C83.7565 118 79.6869 116.314 76.6863 113.314C73.6857 110.313 72 106.243 72 102L88 102H104Z" fill="#95F037"/>
<path d="M88 118C92.2435 118 96.3131 119.686 99.3137 122.686C102.314 125.687 104 129.757 104 134C104 138.243 102.314 142.313 99.3137 145.314C96.3131 148.314 92.2435 150 88 150L88 134V118Z" fill="#95F037"/>
<rect x="104" y="118" width="16" height="32" fill="#294C06"/>
<rect x="136" y="118" width="16" height="16" fill="#294C06"/>
<path d="M136 134C132.835 134 129.742 133.062 127.111 131.304C124.48 129.545 122.429 127.047 121.218 124.123C120.007 121.199 119.69 117.982 120.307 114.879C120.925 111.775 122.449 108.924 124.686 106.686C126.924 104.449 129.775 102.925 132.879 102.307C135.982 101.69 139.199 102.007 142.123 103.218C145.047 104.429 147.545 106.48 149.304 109.111C151.062 111.742 152 114.836 152 118L136 118L136 134Z" fill="#95F037"/>
<path d="M104 118C104 113.757 105.686 109.687 108.686 106.686C111.687 103.686 115.757 102 120 102L120 118L104 118Z" fill="#95F037"/>
<circle cx="144" cy="142" r="8" fill="#95F037"/>
<circle cx="128" cy="142" r="8" fill="#294C06"/>
<rect x="40" y="150" width="16" height="16" fill="#95F037"/>
<circle cx="40" cy="182" r="16" fill="#294C06"/>
<path d="M24 182C20.8355 182 17.7421 181.062 15.1109 179.304C12.4797 177.545 10.4289 175.047 9.21793 172.123C8.00693 169.199 7.69007 165.982 8.30744 162.879C8.9248 159.775 10.4487 156.924 12.6863 154.686C14.9239 152.449 17.7749 150.925 20.8786 150.307C23.9823 149.69 27.1993 150.007 30.1229 151.218C33.0466 152.429 35.5454 154.48 37.3035 157.111C39.0616 159.742 40 162.836 40 166L24 166L24 182Z" fill="#95F037"/>
<path d="M24 182C24 184.101 23.5862 186.182 22.7821 188.123C21.978 190.064 20.7994 191.828 19.3137 193.314C17.828 194.799 16.0641 195.978 14.1229 196.782C12.1817 197.586 10.1012 198 8 198L8 182H24Z" fill="#95F037"/>
<rect x="56" y="166" width="16" height="32" fill="#294C06"/>
<rect x="72" y="150" width="16" height="16" fill="#294C06"/>
<path d="M88 150C90.1012 150 92.1817 150.414 94.1229 151.218C96.0641 152.022 97.828 153.201 99.3137 154.686C100.799 156.172 101.978 157.936 102.782 159.877C103.586 161.818 104 163.899 104 166L88 166L88 150Z" fill="#95F037"/>
<path d="M72 182C72 177.757 73.6857 173.687 76.6863 170.686C79.6869 167.686 83.7565 166 88 166L88 182L72 182Z" fill="#95F037"/>
<path d="M88 182C88 186.243 86.3143 190.313 83.3137 193.314C80.3131 196.314 76.2435 198 72 198L72 182H88Z" fill="#95F037"/>
<circle cx="64" cy="158" r="8" fill="#95F037"/>
<circle cx="96" cy="174" r="8" fill="#294C06"/>
<circle cx="96" cy="190" r="8" fill="#294C06"/>
<path d="M136 166C136 162.835 135.062 159.742 133.304 157.111C131.545 154.48 129.047 152.429 126.123 151.218C123.199 150.007 119.982 149.69 116.879 150.307C113.775 150.925 110.924 152.449 108.686 154.686C106.449 156.924 104.925 159.775 104.307 162.879C103.69 165.982 104.007 169.199 105.218 172.123C106.429 175.047 108.48 177.545 111.111 179.304C113.742 181.062 116.835 182 120 182L120 166H136Z" fill="#294C06"/>
<path d="M136 198C132.835 198 129.742 197.062 127.111 195.304C124.48 193.545 122.429 191.047 121.218 188.123C120.007 185.199 119.69 181.982 120.307 178.879C120.925 175.775 122.449 172.924 124.686 170.686C126.924 168.449 129.775 166.925 132.879 166.307C135.982 165.69 139.199 166.007 142.123 167.218C145.047 168.429 147.545 170.48 149.304 173.111C151.062 175.742 152 178.836 152 182L136 182L136 198Z" fill="#95F037"/>
<path d="M136 150C140.243 150 144.313 151.686 147.314 154.686C150.314 157.687 152 161.757 152 166L136 166L136 150Z" fill="#95F037"/>
<path d="M104 198C104 193.757 105.686 189.687 108.686 186.686C111.687 183.686 115.757 182 120 182L120 198L104 198Z" fill="#95F037"/>
<circle cx="144" cy="190" r="8" fill="#294C06"/>
</g>
<g clip-path="url(#clip3_574_6498)">
<circle cx="264" cy="214" r="16" fill="#294C06"/>
<path d="M280 214C283.165 214 286.258 214.938 288.889 216.696C291.52 218.455 293.571 220.953 294.782 223.877C295.993 226.801 296.31 230.018 295.693 233.121C295.075 236.225 293.551 239.076 291.314 241.314C289.076 243.551 286.225 245.075 283.121 245.693C280.018 246.31 276.801 245.993 273.877 244.782C270.953 243.571 268.455 241.52 266.696 238.889C264.938 236.258 264 233.165 264 230L280 230L280 214Z" fill="#95F037"/>
<circle cx="256" cy="238" r="8" fill="#294C06"/>
<rect x="280" y="198" width="16" height="16" fill="#95F037"/>
<rect x="296" y="198" width="16" height="16" fill="#294C06"/>
<rect x="312" y="214" width="16" height="32" fill="#294C06"/>
<circle cx="304" cy="238" r="8" fill="#294C06"/>
<path d="M296 214C300.243 214 304.313 215.686 307.314 218.686C310.314 221.687 312 225.757 312 230H296L296 214Z" fill="#95F037"/>
<path d="M344 198C344 202.243 342.314 206.313 339.314 209.314C336.313 212.314 332.243 214 328 214C323.757 214 319.687 212.314 316.686 209.314C313.686 206.313 312 202.243 312 198L328 198H344Z" fill="#95F037"/>
<path d="M328 214C332.243 214 336.313 215.686 339.314 218.686C342.314 221.687 344 225.757 344 230C344 234.243 342.314 238.313 339.314 241.314C336.313 244.314 332.243 246 328 246L328 230V214Z" fill="#95F037"/>
<rect x="344" y="214" width="16" height="32" fill="#294C06"/>
<rect x="376" y="214" width="16" height="16" fill="#294C06"/>
<path d="M376 230C372.835 230 369.742 229.062 367.111 227.304C364.48 225.545 362.429 223.047 361.218 220.123C360.007 217.199 359.69 213.982 360.307 210.879C360.925 207.775 362.449 204.924 364.686 202.686C366.924 200.449 369.775 198.925 372.879 198.307C375.982 197.69 379.199 198.007 382.123 199.218C385.047 200.429 387.545 202.48 389.304 205.111C391.062 207.742 392 210.836 392 214L376 214L376 230Z" fill="#95F037"/>
<path d="M344 214C344 209.757 345.686 205.687 348.686 202.686C351.687 199.686 355.757 198 360 198L360 214L344 214Z" fill="#95F037"/>
<circle cx="384" cy="238" r="8" fill="#95F037"/>
<circle cx="368" cy="238" r="8" fill="#294C06"/>
<rect x="280" y="246" width="16" height="16" fill="#95F037"/>
<circle cx="280" cy="278" r="16" fill="#294C06"/>
<path d="M264 278C260.835 278 257.742 277.062 255.111 275.304C252.48 273.545 250.429 271.047 249.218 268.123C248.007 265.199 247.69 261.982 248.307 258.879C248.925 255.775 250.449 252.924 252.686 250.686C254.924 248.449 257.775 246.925 260.879 246.307C263.982 245.69 267.199 246.007 270.123 247.218C273.047 248.429 275.545 250.48 277.304 253.111C279.062 255.742 280 258.836 280 262L264 262L264 278Z" fill="#95F037"/>
<path d="M264 278C264 280.101 263.586 282.182 262.782 284.123C261.978 286.064 260.799 287.828 259.314 289.314C257.828 290.799 256.064 291.978 254.123 292.782C252.182 293.586 250.101 294 248 294L248 278H264Z" fill="#95F037"/>
<rect x="296" y="262" width="16" height="32" fill="#294C06"/>
<rect x="312" y="246" width="16" height="16" fill="#294C06"/>
<path d="M328 246C330.101 246 332.182 246.414 334.123 247.218C336.064 248.022 337.828 249.201 339.314 250.686C340.799 252.172 341.978 253.936 342.782 255.877C343.586 257.818 344 259.899 344 262L328 262L328 246Z" fill="#95F037"/>
<path d="M312 278C312 273.757 313.686 269.687 316.686 266.686C319.687 263.686 323.757 262 328 262L328 278L312 278Z" fill="#95F037"/>
<path d="M328 278C328 282.243 326.314 286.313 323.314 289.314C320.313 292.314 316.243 294 312 294L312 278H328Z" fill="#95F037"/>
<circle cx="304" cy="254" r="8" fill="#95F037"/>
<circle cx="336" cy="270" r="8" fill="#294C06"/>
<circle cx="336" cy="286" r="8" fill="#294C06"/>
<path d="M376 262C376 258.835 375.062 255.742 373.304 253.111C371.545 250.48 369.047 248.429 366.123 247.218C363.199 246.007 359.982 245.69 356.879 246.307C353.775 246.925 350.924 248.449 348.686 250.686C346.449 252.924 344.925 255.775 344.307 258.879C343.69 261.982 344.007 265.199 345.218 268.123C346.429 271.047 348.48 273.545 351.111 275.304C353.742 277.062 356.835 278 360 278L360 262H376Z" fill="#294C06"/>
<path d="M376 294C372.835 294 369.742 293.062 367.111 291.304C364.48 289.545 362.429 287.047 361.218 284.123C360.007 281.199 359.69 277.982 360.307 274.879C360.925 271.775 362.449 268.924 364.686 266.686C366.924 264.449 369.775 262.925 372.879 262.307C375.982 261.69 379.199 262.007 382.123 263.218C385.047 264.429 387.545 266.48 389.304 269.111C391.062 271.742 392 274.836 392 278L376 278L376 294Z" fill="#95F037"/>
<path d="M376 246C380.243 246 384.313 247.686 387.314 250.686C390.314 253.687 392 257.757 392 262L376 262L376 246Z" fill="#95F037"/>
<path d="M344 294C344 289.757 345.686 285.687 348.686 282.686C351.687 279.686 355.757 278 360 278L360 294L344 294Z" fill="#95F037"/>
<circle cx="384" cy="286" r="8" fill="#294C06"/>
</g>
<defs>
<clipPath id="clip0_574_6498">
<rect width="240" height="96" fill="white" transform="translate(152 102)"/>
</clipPath>
<clipPath id="clip1_574_6498">
<rect width="240" height="96" fill="white" transform="translate(8 198)"/>
</clipPath>
<clipPath id="clip2_574_6498">
<rect width="144" height="96" fill="white" transform="translate(8 102)"/>
</clipPath>
<clipPath id="clip3_574_6498">
<rect width="144" height="96" fill="white" transform="translate(248 198)"/>
</clipPath>
</defs>
</svg>
