<svg width="392" height="310" viewBox="0 0 392 310" fill="none" xmlns="http://www.w3.org/2000/svg">
<g clip-path="url(#clip0_610_5775)">
<circle cx="16" cy="38" r="16" fill="#572C05"/>
<path d="M32 38C35.1645 38 38.2579 38.9384 40.8891 40.6965C43.5203 42.4546 45.5711 44.9534 46.7821 47.8771C47.9931 50.8007 48.3099 54.0177 47.6926 57.1214C47.0752 60.2251 45.5513 63.0761 43.3137 65.3137C41.0761 67.5513 38.2251 69.0752 35.1214 69.6926C32.0177 70.3099 28.8007 69.9931 25.8771 68.7821C22.9534 67.5711 20.4546 65.5203 18.6965 62.8891C16.9384 60.2579 16 57.1645 16 54L32 54L32 38Z" fill="#FFA857"/>
<circle cx="8" cy="62" r="8" fill="#572C05"/>
<rect x="32" y="22" width="16" height="16" fill="#FFA857"/>
<rect x="48" y="22" width="16" height="16" fill="#572C05"/>
<rect x="64" y="38" width="16" height="32" fill="#572C05"/>
<circle cx="56" cy="62" r="8" fill="#572C05"/>
<path d="M48 38C52.2435 38 56.3131 39.6857 59.3137 42.6863C62.3143 45.6869 64 49.7565 64 54H48L48 38Z" fill="#FFA857"/>
<path d="M96 22C96 26.2435 94.3143 30.3131 91.3137 33.3137C88.3131 36.3143 84.2435 38 80 38C75.7565 38 71.6869 36.3143 68.6863 33.3137C65.6857 30.3131 64 26.2435 64 22L80 22H96Z" fill="#FFA857"/>
<path d="M80 38C84.2435 38 88.3131 39.6857 91.3137 42.6863C94.3143 45.6869 96 49.7565 96 54C96 58.2435 94.3143 62.3131 91.3137 65.3137C88.3131 68.3143 84.2435 70 80 70L80 54V38Z" fill="#FFA857"/>
<rect x="96" y="38" width="16" height="32" fill="#572C05"/>
<rect x="128" y="38" width="16" height="16" fill="#572C05"/>
<path d="M128 54C124.835 54 121.742 53.0616 119.111 51.3035C116.48 49.5454 114.429 47.0466 113.218 44.1229C112.007 41.1993 111.69 37.9822 112.307 34.8786C112.925 31.7749 114.449 28.9239 116.686 26.6863C118.924 24.4487 121.775 22.9248 124.879 22.3074C127.982 21.6901 131.199 22.0069 134.123 23.2179C137.047 24.4289 139.545 26.4797 141.304 29.1109C143.062 31.7421 144 34.8355 144 38L128 38L128 54Z" fill="#FFA857"/>
<path d="M96 38C96 33.7565 97.6857 29.6869 100.686 26.6863C103.687 23.6857 107.757 22 112 22L112 38L96 38Z" fill="#FFA857"/>
<circle cx="136" cy="62" r="8" fill="#FFA857"/>
<circle cx="120" cy="62" r="8" fill="#572C05"/>
<rect x="32" y="70" width="16" height="16" fill="#FFA857"/>
<circle cx="32" cy="102" r="16" fill="#572C05"/>
<path d="M16 102C12.8355 102 9.74206 101.062 7.11088 99.3035C4.47969 97.5454 2.42893 95.0466 1.21793 92.1229C0.00692507 89.1993 -0.309928 85.9822 0.307436 82.8786C0.9248 79.7749 2.44865 76.9239 4.68629 74.6863C6.92393 72.4487 9.77486 70.9248 12.8786 70.3074C15.9823 69.6901 19.1993 70.0069 22.1229 71.2179C25.0466 72.4289 27.5454 74.4797 29.3035 77.1109C31.0616 79.7421 32 82.8355 32 86L16 86L16 102Z" fill="#FFA857"/>
<path d="M16 102C16 104.101 15.5862 106.182 14.7821 108.123C13.978 110.064 12.7994 111.828 11.3137 113.314C9.82797 114.799 8.06414 115.978 6.12294 116.782C4.18173 117.586 2.10115 118 0 118L2.86102e-06 102H16Z" fill="#FFA857"/>
<rect x="48" y="86" width="16" height="32" fill="#572C05"/>
<rect x="64" y="70" width="16" height="16" fill="#572C05"/>
<path d="M80 70C82.1012 70 84.1817 70.4139 86.1229 71.2179C88.0641 72.022 89.828 73.2006 91.3137 74.6863C92.7994 76.172 93.978 77.9359 94.7821 79.8771C95.5861 81.8183 96 83.8989 96 86L80 86L80 70Z" fill="#FFA857"/>
<path d="M64 102C64 97.7565 65.6857 93.6869 68.6863 90.6863C71.6869 87.6857 75.7565 86 80 86L80 102L64 102Z" fill="#FFA857"/>
<path d="M80 102C80 106.243 78.3143 110.313 75.3137 113.314C72.3131 116.314 68.2435 118 64 118L64 102H80Z" fill="#FFA857"/>
<circle cx="56" cy="78" r="8" fill="#FFA857"/>
<circle cx="88" cy="94" r="8" fill="#572C05"/>
<circle cx="88" cy="110" r="8" fill="#572C05"/>
<path d="M128 86C128 82.8355 127.062 79.7421 125.304 77.1109C123.545 74.4797 121.047 72.4289 118.123 71.2179C115.199 70.0069 111.982 69.6901 108.879 70.3074C105.775 70.9248 102.924 72.4487 100.686 74.6863C98.4487 76.9239 96.9248 79.7749 96.3074 82.8786C95.6901 85.9823 96.0069 89.1993 97.2179 92.1229C98.4289 95.0466 100.48 97.5454 103.111 99.3035C105.742 101.062 108.835 102 112 102L112 86H128Z" fill="#572C05"/>
<path d="M128 118C124.835 118 121.742 117.062 119.111 115.304C116.48 113.545 114.429 111.047 113.218 108.123C112.007 105.199 111.69 101.982 112.307 98.8786C112.925 95.7749 114.449 92.9239 116.686 90.6863C118.924 88.4487 121.775 86.9248 124.879 86.3074C127.982 85.6901 131.199 86.0069 134.123 87.2179C137.047 88.4289 139.545 90.4797 141.304 93.1109C143.062 95.7421 144 98.8355 144 102L128 102L128 118Z" fill="#FFA857"/>
<path d="M128 70C132.243 70 136.313 71.6857 139.314 74.6863C142.314 77.6869 144 81.7565 144 86L128 86L128 70Z" fill="#FFA857"/>
<path d="M96 118C96 113.757 97.6857 109.687 100.686 106.686C103.687 103.686 107.757 102 112 102L112 118L96 118Z" fill="#FFA857"/>
<circle cx="136" cy="110" r="8" fill="#572C05"/>
</g>
<g clip-path="url(#clip1_610_5775)">
<circle cx="160" cy="38" r="16" fill="#572C05"/>
<path d="M176 38C179.165 38 182.258 38.9384 184.889 40.6965C187.52 42.4546 189.571 44.9534 190.782 47.8771C191.993 50.8007 192.31 54.0177 191.693 57.1214C191.075 60.2251 189.551 63.0761 187.314 65.3137C185.076 67.5513 182.225 69.0752 179.121 69.6926C176.018 70.3099 172.801 69.9931 169.877 68.7821C166.953 67.5711 164.455 65.5203 162.696 62.8891C160.938 60.2579 160 57.1645 160 54L176 54L176 38Z" fill="#FFA857"/>
<circle cx="152" cy="62" r="8" fill="#572C05"/>
<rect x="176" y="22" width="16" height="16" fill="#FFA857"/>
<rect x="192" y="22" width="16" height="16" fill="#572C05"/>
<rect x="208" y="38" width="16" height="32" fill="#572C05"/>
<circle cx="200" cy="62" r="8" fill="#572C05"/>
<path d="M192 38C196.243 38 200.313 39.6857 203.314 42.6863C206.314 45.6869 208 49.7565 208 54H192L192 38Z" fill="#FFA857"/>
<path d="M240 22C240 26.2435 238.314 30.3131 235.314 33.3137C232.313 36.3143 228.243 38 224 38C219.757 38 215.687 36.3143 212.686 33.3137C209.686 30.3131 208 26.2435 208 22L224 22H240Z" fill="#FFA857"/>
<path d="M224 38C228.243 38 232.313 39.6857 235.314 42.6863C238.314 45.6869 240 49.7565 240 54C240 58.2435 238.314 62.3131 235.314 65.3137C232.313 68.3143 228.243 70 224 70L224 54V38Z" fill="#FFA857"/>
<rect x="240" y="38" width="16" height="32" fill="#572C05"/>
<rect x="272" y="38" width="16" height="16" fill="#572C05"/>
<path d="M272 54C268.835 54 265.742 53.0616 263.111 51.3035C260.48 49.5454 258.429 47.0466 257.218 44.1229C256.007 41.1993 255.69 37.9822 256.307 34.8786C256.925 31.7749 258.449 28.9239 260.686 26.6863C262.924 24.4487 265.775 22.9248 268.879 22.3074C271.982 21.6901 275.199 22.0069 278.123 23.2179C281.047 24.4289 283.545 26.4797 285.304 29.1109C287.062 31.7421 288 34.8355 288 38L272 38L272 54Z" fill="#FFA857"/>
<path d="M240 38C240 33.7565 241.686 29.6869 244.686 26.6863C247.687 23.6857 251.757 22 256 22L256 38L240 38Z" fill="#FFA857"/>
<circle cx="280" cy="62" r="8" fill="#FFA857"/>
<circle cx="264" cy="62" r="8" fill="#572C05"/>
<rect x="176" y="70" width="16" height="16" fill="#FFA857"/>
<circle cx="176" cy="102" r="16" fill="#572C05"/>
<path d="M160 102C156.835 102 153.742 101.062 151.111 99.3035C148.48 97.5454 146.429 95.0466 145.218 92.1229C144.007 89.1993 143.69 85.9822 144.307 82.8786C144.925 79.7749 146.449 76.9239 148.686 74.6863C150.924 72.4487 153.775 70.9248 156.879 70.3074C159.982 69.6901 163.199 70.0069 166.123 71.2179C169.047 72.4289 171.545 74.4797 173.304 77.1109C175.062 79.7421 176 82.8355 176 86L160 86L160 102Z" fill="#FFA857"/>
<path d="M160 102C160 104.101 159.586 106.182 158.782 108.123C157.978 110.064 156.799 111.828 155.314 113.314C153.828 114.799 152.064 115.978 150.123 116.782C148.182 117.586 146.101 118 144 118L144 102H160Z" fill="#FFA857"/>
<rect x="192" y="86" width="16" height="32" fill="#572C05"/>
<rect x="208" y="70" width="16" height="16" fill="#572C05"/>
<path d="M224 70C226.101 70 228.182 70.4139 230.123 71.2179C232.064 72.022 233.828 73.2006 235.314 74.6863C236.799 76.172 237.978 77.9359 238.782 79.8771C239.586 81.8183 240 83.8989 240 86L224 86L224 70Z" fill="#FFA857"/>
<path d="M208 102C208 97.7565 209.686 93.6869 212.686 90.6863C215.687 87.6857 219.757 86 224 86L224 102L208 102Z" fill="#FFA857"/>
<path d="M224 102C224 106.243 222.314 110.313 219.314 113.314C216.313 116.314 212.243 118 208 118L208 102H224Z" fill="#FFA857"/>
<circle cx="200" cy="78" r="8" fill="#FFA857"/>
<circle cx="232" cy="94" r="8" fill="#572C05"/>
<circle cx="232" cy="110" r="8" fill="#572C05"/>
<path d="M272 86C272 82.8355 271.062 79.7421 269.304 77.1109C267.545 74.4797 265.047 72.4289 262.123 71.2179C259.199 70.0069 255.982 69.6901 252.879 70.3074C249.775 70.9248 246.924 72.4487 244.686 74.6863C242.449 76.9239 240.925 79.7749 240.307 82.8786C239.69 85.9823 240.007 89.1993 241.218 92.1229C242.429 95.0466 244.48 97.5454 247.111 99.3035C249.742 101.062 252.835 102 256 102L256 86H272Z" fill="#572C05"/>
<path d="M272 118C268.835 118 265.742 117.062 263.111 115.304C260.48 113.545 258.429 111.047 257.218 108.123C256.007 105.199 255.69 101.982 256.307 98.8786C256.925 95.7749 258.449 92.9239 260.686 90.6863C262.924 88.4487 265.775 86.9248 268.879 86.3074C271.982 85.6901 275.199 86.0069 278.123 87.2179C281.047 88.4289 283.545 90.4797 285.304 93.1109C287.062 95.7421 288 98.8355 288 102L272 102L272 118Z" fill="#FFA857"/>
<path d="M272 70C276.243 70 280.313 71.6857 283.314 74.6863C286.314 77.6869 288 81.7565 288 86L272 86L272 70Z" fill="#FFA857"/>
<path d="M240 118C240 113.757 241.686 109.687 244.686 106.686C247.687 103.686 251.757 102 256 102L256 118L240 118Z" fill="#FFA857"/>
<circle cx="280" cy="110" r="8" fill="#572C05"/>
</g>
<g clip-path="url(#clip2_610_5775)">
<circle cx="16" cy="134" r="16" fill="#572C05"/>
<path d="M32 134C35.1645 134 38.2579 134.938 40.8891 136.696C43.5203 138.455 45.5711 140.953 46.7821 143.877C47.9931 146.801 48.3099 150.018 47.6926 153.121C47.0752 156.225 45.5513 159.076 43.3137 161.314C41.0761 163.551 38.2251 165.075 35.1214 165.693C32.0177 166.31 28.8007 165.993 25.8771 164.782C22.9534 163.571 20.4546 161.52 18.6965 158.889C16.9384 156.258 16 153.165 16 150L32 150L32 134Z" fill="#FFA857"/>
<circle cx="8" cy="158" r="8" fill="#572C05"/>
<rect x="32" y="118" width="16" height="16" fill="#FFA857"/>
<rect x="48" y="118" width="16" height="16" fill="#572C05"/>
<rect x="64" y="134" width="16" height="32" fill="#572C05"/>
<circle cx="56" cy="158" r="8" fill="#572C05"/>
<path d="M48 134C52.2435 134 56.3131 135.686 59.3137 138.686C62.3143 141.687 64 145.757 64 150H48L48 134Z" fill="#FFA857"/>
<path d="M96 118C96 122.243 94.3143 126.313 91.3137 129.314C88.3131 132.314 84.2435 134 80 134C75.7565 134 71.6869 132.314 68.6863 129.314C65.6857 126.313 64 122.243 64 118L80 118H96Z" fill="#FFA857"/>
<path d="M80 134C84.2435 134 88.3131 135.686 91.3137 138.686C94.3143 141.687 96 145.757 96 150C96 154.243 94.3143 158.313 91.3137 161.314C88.3131 164.314 84.2435 166 80 166L80 150V134Z" fill="#FFA857"/>
<rect x="96" y="134" width="16" height="32" fill="#572C05"/>
<rect x="128" y="134" width="16" height="16" fill="#572C05"/>
<path d="M128 150C124.835 150 121.742 149.062 119.111 147.304C116.48 145.545 114.429 143.047 113.218 140.123C112.007 137.199 111.69 133.982 112.307 130.879C112.925 127.775 114.449 124.924 116.686 122.686C118.924 120.449 121.775 118.925 124.879 118.307C127.982 117.69 131.199 118.007 134.123 119.218C137.047 120.429 139.545 122.48 141.304 125.111C143.062 127.742 144 130.836 144 134L128 134L128 150Z" fill="#FFA857"/>
<path d="M96 134C96 129.757 97.6857 125.687 100.686 122.686C103.687 119.686 107.757 118 112 118L112 134L96 134Z" fill="#FFA857"/>
<circle cx="136" cy="158" r="8" fill="#FFA857"/>
<circle cx="120" cy="158" r="8" fill="#572C05"/>
<rect x="32" y="166" width="16" height="16" fill="#FFA857"/>
<circle cx="32" cy="198" r="16" fill="#572C05"/>
<path d="M16 198C12.8355 198 9.74206 197.062 7.11088 195.304C4.47969 193.545 2.42893 191.047 1.21793 188.123C0.00692507 185.199 -0.309928 181.982 0.307436 178.879C0.9248 175.775 2.44865 172.924 4.68629 170.686C6.92393 168.449 9.77486 166.925 12.8786 166.307C15.9823 165.69 19.1993 166.007 22.1229 167.218C25.0466 168.429 27.5454 170.48 29.3035 173.111C31.0616 175.742 32 178.836 32 182L16 182L16 198Z" fill="#FFA857"/>
<path d="M16 198C16 200.101 15.5862 202.182 14.7821 204.123C13.978 206.064 12.7994 207.828 11.3137 209.314C9.82797 210.799 8.06414 211.978 6.12294 212.782C4.18173 213.586 2.10115 214 0 214L2.86102e-06 198H16Z" fill="#FFA857"/>
<rect x="48" y="182" width="16" height="32" fill="#572C05"/>
<rect x="64" y="166" width="16" height="16" fill="#572C05"/>
<path d="M80 166C82.1012 166 84.1817 166.414 86.1229 167.218C88.0641 168.022 89.828 169.201 91.3137 170.686C92.7994 172.172 93.978 173.936 94.7821 175.877C95.5861 177.818 96 179.899 96 182L80 182L80 166Z" fill="#FFA857"/>
<path d="M64 198C64 193.757 65.6857 189.687 68.6863 186.686C71.6869 183.686 75.7565 182 80 182L80 198L64 198Z" fill="#FFA857"/>
<path d="M80 198C80 202.243 78.3143 206.313 75.3137 209.314C72.3131 212.314 68.2435 214 64 214L64 198H80Z" fill="#FFA857"/>
<circle cx="56" cy="174" r="8" fill="#FFA857"/>
<circle cx="88" cy="190" r="8" fill="#572C05"/>
<circle cx="88" cy="206" r="8" fill="#572C05"/>
<path d="M128 182C128 178.835 127.062 175.742 125.304 173.111C123.545 170.48 121.047 168.429 118.123 167.218C115.199 166.007 111.982 165.69 108.879 166.307C105.775 166.925 102.924 168.449 100.686 170.686C98.4487 172.924 96.9248 175.775 96.3074 178.879C95.6901 181.982 96.0069 185.199 97.2179 188.123C98.4289 191.047 100.48 193.545 103.111 195.304C105.742 197.062 108.835 198 112 198L112 182H128Z" fill="#572C05"/>
<path d="M128 214C124.835 214 121.742 213.062 119.111 211.304C116.48 209.545 114.429 207.047 113.218 204.123C112.007 201.199 111.69 197.982 112.307 194.879C112.925 191.775 114.449 188.924 116.686 186.686C118.924 184.449 121.775 182.925 124.879 182.307C127.982 181.69 131.199 182.007 134.123 183.218C137.047 184.429 139.545 186.48 141.304 189.111C143.062 191.742 144 194.836 144 198L128 198L128 214Z" fill="#FFA857"/>
<path d="M128 166C132.243 166 136.313 167.686 139.314 170.686C142.314 173.687 144 177.757 144 182L128 182L128 166Z" fill="#FFA857"/>
<path d="M96 214C96 209.757 97.6857 205.687 100.686 202.686C103.687 199.686 107.757 198 112 198L112 214L96 214Z" fill="#FFA857"/>
<circle cx="136" cy="206" r="8" fill="#572C05"/>
</g>
<g clip-path="url(#clip3_610_5775)">
<circle cx="160" cy="134" r="16" fill="#572C05"/>
<path d="M176 134C179.165 134 182.258 134.938 184.889 136.696C187.52 138.455 189.571 140.953 190.782 143.877C191.993 146.801 192.31 150.018 191.693 153.121C191.075 156.225 189.551 159.076 187.314 161.314C185.076 163.551 182.225 165.075 179.121 165.693C176.018 166.31 172.801 165.993 169.877 164.782C166.953 163.571 164.455 161.52 162.696 158.889C160.938 156.258 160 153.165 160 150L176 150L176 134Z" fill="#FFA857"/>
<circle cx="152" cy="158" r="8" fill="#572C05"/>
<rect x="176" y="118" width="16" height="16" fill="#FFA857"/>
<rect x="192" y="118" width="16" height="16" fill="#572C05"/>
<rect x="208" y="134" width="16" height="32" fill="#572C05"/>
<circle cx="200" cy="158" r="8" fill="#572C05"/>
<path d="M192 134C196.243 134 200.313 135.686 203.314 138.686C206.314 141.687 208 145.757 208 150H192L192 134Z" fill="#FFA857"/>
<path d="M240 118C240 122.243 238.314 126.313 235.314 129.314C232.313 132.314 228.243 134 224 134C219.757 134 215.687 132.314 212.686 129.314C209.686 126.313 208 122.243 208 118L224 118H240Z" fill="#FFA857"/>
<path d="M224 134C228.243 134 232.313 135.686 235.314 138.686C238.314 141.687 240 145.757 240 150C240 154.243 238.314 158.313 235.314 161.314C232.313 164.314 228.243 166 224 166L224 150V134Z" fill="#FFA857"/>
<rect x="240" y="134" width="16" height="32" fill="#572C05"/>
<rect x="272" y="134" width="16" height="16" fill="#572C05"/>
<path d="M272 150C268.835 150 265.742 149.062 263.111 147.304C260.48 145.545 258.429 143.047 257.218 140.123C256.007 137.199 255.69 133.982 256.307 130.879C256.925 127.775 258.449 124.924 260.686 122.686C262.924 120.449 265.775 118.925 268.879 118.307C271.982 117.69 275.199 118.007 278.123 119.218C281.047 120.429 283.545 122.48 285.304 125.111C287.062 127.742 288 130.836 288 134L272 134L272 150Z" fill="#FFA857"/>
<path d="M240 134C240 129.757 241.686 125.687 244.686 122.686C247.687 119.686 251.757 118 256 118L256 134L240 134Z" fill="#FFA857"/>
<circle cx="280" cy="158" r="8" fill="#FFA857"/>
<circle cx="264" cy="158" r="8" fill="#572C05"/>
<rect x="176" y="166" width="16" height="16" fill="#FFA857"/>
<circle cx="176" cy="198" r="16" fill="#572C05"/>
<path d="M160 198C156.835 198 153.742 197.062 151.111 195.304C148.48 193.545 146.429 191.047 145.218 188.123C144.007 185.199 143.69 181.982 144.307 178.879C144.925 175.775 146.449 172.924 148.686 170.686C150.924 168.449 153.775 166.925 156.879 166.307C159.982 165.69 163.199 166.007 166.123 167.218C169.047 168.429 171.545 170.48 173.304 173.111C175.062 175.742 176 178.836 176 182L160 182L160 198Z" fill="#FFA857"/>
<path d="M160 198C160 200.101 159.586 202.182 158.782 204.123C157.978 206.064 156.799 207.828 155.314 209.314C153.828 210.799 152.064 211.978 150.123 212.782C148.182 213.586 146.101 214 144 214L144 198H160Z" fill="#FFA857"/>
<rect x="192" y="182" width="16" height="32" fill="#572C05"/>
<rect x="208" y="166" width="16" height="16" fill="#572C05"/>
<path d="M224 166C226.101 166 228.182 166.414 230.123 167.218C232.064 168.022 233.828 169.201 235.314 170.686C236.799 172.172 237.978 173.936 238.782 175.877C239.586 177.818 240 179.899 240 182L224 182L224 166Z" fill="#FFA857"/>
<path d="M208 198C208 193.757 209.686 189.687 212.686 186.686C215.687 183.686 219.757 182 224 182L224 198L208 198Z" fill="#FFA857"/>
<path d="M224 198C224 202.243 222.314 206.313 219.314 209.314C216.313 212.314 212.243 214 208 214L208 198H224Z" fill="#FFA857"/>
<circle cx="200" cy="174" r="8" fill="#FFA857"/>
<circle cx="232" cy="190" r="8" fill="#572C05"/>
<circle cx="232" cy="206" r="8" fill="#572C05"/>
<path d="M272 182C272 178.835 271.062 175.742 269.304 173.111C267.545 170.48 265.047 168.429 262.123 167.218C259.199 166.007 255.982 165.69 252.879 166.307C249.775 166.925 246.924 168.449 244.686 170.686C242.449 172.924 240.925 175.775 240.307 178.879C239.69 181.982 240.007 185.199 241.218 188.123C242.429 191.047 244.48 193.545 247.111 195.304C249.742 197.062 252.835 198 256 198L256 182H272Z" fill="#572C05"/>
<path d="M272 214C268.835 214 265.742 213.062 263.111 211.304C260.48 209.545 258.429 207.047 257.218 204.123C256.007 201.199 255.69 197.982 256.307 194.879C256.925 191.775 258.449 188.924 260.686 186.686C262.924 184.449 265.775 182.925 268.879 182.307C271.982 181.69 275.199 182.007 278.123 183.218C281.047 184.429 283.545 186.48 285.304 189.111C287.062 191.742 288 194.836 288 198L272 198L272 214Z" fill="#FFA857"/>
<path d="M272 166C276.243 166 280.313 167.686 283.314 170.686C286.314 173.687 288 177.757 288 182L272 182L272 166Z" fill="#FFA857"/>
<path d="M240 214C240 209.757 241.686 205.687 244.686 202.686C247.687 199.686 251.757 198 256 198L256 214L240 214Z" fill="#FFA857"/>
<circle cx="280" cy="206" r="8" fill="#572C05"/>
</g>
<g clip-path="url(#clip4_610_5775)">
<circle cx="16" cy="230" r="16" fill="#572C05"/>
<path d="M32 230C35.1645 230 38.2579 230.938 40.8891 232.696C43.5203 234.455 45.5711 236.953 46.7821 239.877C47.9931 242.801 48.3099 246.018 47.6926 249.121C47.0752 252.225 45.5513 255.076 43.3137 257.314C41.0761 259.551 38.2251 261.075 35.1214 261.693C32.0177 262.31 28.8007 261.993 25.8771 260.782C22.9534 259.571 20.4546 257.52 18.6965 254.889C16.9384 252.258 16 249.165 16 246L32 246L32 230Z" fill="#FFA857"/>
<circle cx="8" cy="254" r="8" fill="#572C05"/>
<rect x="32" y="214" width="16" height="16" fill="#FFA857"/>
<rect x="48" y="214" width="16" height="16" fill="#572C05"/>
<rect x="64" y="230" width="16" height="32" fill="#572C05"/>
<circle cx="56" cy="254" r="8" fill="#572C05"/>
<path d="M48 230C52.2435 230 56.3131 231.686 59.3137 234.686C62.3143 237.687 64 241.757 64 246H48L48 230Z" fill="#FFA857"/>
<path d="M96 214C96 218.243 94.3143 222.313 91.3137 225.314C88.3131 228.314 84.2435 230 80 230C75.7565 230 71.6869 228.314 68.6863 225.314C65.6857 222.313 64 218.243 64 214L80 214H96Z" fill="#FFA857"/>
<path d="M80 230C84.2435 230 88.3131 231.686 91.3137 234.686C94.3143 237.687 96 241.757 96 246C96 250.243 94.3143 254.313 91.3137 257.314C88.3131 260.314 84.2435 262 80 262L80 246V230Z" fill="#FFA857"/>
<rect x="96" y="230" width="16" height="32" fill="#572C05"/>
<rect x="128" y="230" width="16" height="16" fill="#572C05"/>
<path d="M128 246C124.835 246 121.742 245.062 119.111 243.304C116.48 241.545 114.429 239.047 113.218 236.123C112.007 233.199 111.69 229.982 112.307 226.879C112.925 223.775 114.449 220.924 116.686 218.686C118.924 216.449 121.775 214.925 124.879 214.307C127.982 213.69 131.199 214.007 134.123 215.218C137.047 216.429 139.545 218.48 141.304 221.111C143.062 223.742 144 226.836 144 230L128 230L128 246Z" fill="#FFA857"/>
<path d="M96 230C96 225.757 97.6857 221.687 100.686 218.686C103.687 215.686 107.757 214 112 214L112 230L96 230Z" fill="#FFA857"/>
<circle cx="136" cy="254" r="8" fill="#FFA857"/>
<circle cx="120" cy="254" r="8" fill="#572C05"/>
<rect x="32" y="262" width="16" height="16" fill="#FFA857"/>
<circle cx="32" cy="294" r="16" fill="#572C05"/>
<path d="M16 294C12.8355 294 9.74206 293.062 7.11088 291.304C4.47969 289.545 2.42893 287.047 1.21793 284.123C0.00692507 281.199 -0.309928 277.982 0.307436 274.879C0.9248 271.775 2.44865 268.924 4.68629 266.686C6.92393 264.449 9.77486 262.925 12.8786 262.307C15.9823 261.69 19.1993 262.007 22.1229 263.218C25.0466 264.429 27.5454 266.48 29.3035 269.111C31.0616 271.742 32 274.836 32 278L16 278L16 294Z" fill="#FFA857"/>
<path d="M16 294C16 296.101 15.5862 298.182 14.7821 300.123C13.978 302.064 12.7994 303.828 11.3137 305.314C9.82797 306.799 8.06414 307.978 6.12294 308.782C4.18173 309.586 2.10115 310 0 310L2.86102e-06 294H16Z" fill="#FFA857"/>
<rect x="48" y="278" width="16" height="32" fill="#572C05"/>
<rect x="64" y="262" width="16" height="16" fill="#572C05"/>
<path d="M80 262C82.1012 262 84.1817 262.414 86.1229 263.218C88.0641 264.022 89.828 265.201 91.3137 266.686C92.7994 268.172 93.978 269.936 94.7821 271.877C95.5861 273.818 96 275.899 96 278L80 278L80 262Z" fill="#FFA857"/>
<path d="M64 294C64 289.757 65.6857 285.687 68.6863 282.686C71.6869 279.686 75.7565 278 80 278L80 294L64 294Z" fill="#FFA857"/>
<path d="M80 294C80 298.243 78.3143 302.313 75.3137 305.314C72.3131 308.314 68.2435 310 64 310L64 294H80Z" fill="#FFA857"/>
<circle cx="56" cy="270" r="8" fill="#FFA857"/>
<circle cx="88" cy="286" r="8" fill="#572C05"/>
<circle cx="88" cy="302" r="8" fill="#572C05"/>
<path d="M128 278C128 274.835 127.062 271.742 125.304 269.111C123.545 266.48 121.047 264.429 118.123 263.218C115.199 262.007 111.982 261.69 108.879 262.307C105.775 262.925 102.924 264.449 100.686 266.686C98.4487 268.924 96.9248 271.775 96.3074 274.879C95.6901 277.982 96.0069 281.199 97.2179 284.123C98.4289 287.047 100.48 289.545 103.111 291.304C105.742 293.062 108.835 294 112 294L112 278H128Z" fill="#572C05"/>
<path d="M128 310C124.835 310 121.742 309.062 119.111 307.304C116.48 305.545 114.429 303.047 113.218 300.123C112.007 297.199 111.69 293.982 112.307 290.879C112.925 287.775 114.449 284.924 116.686 282.686C118.924 280.449 121.775 278.925 124.879 278.307C127.982 277.69 131.199 278.007 134.123 279.218C137.047 280.429 139.545 282.48 141.304 285.111C143.062 287.742 144 290.836 144 294L128 294L128 310Z" fill="#FFA857"/>
<path d="M128 262C132.243 262 136.313 263.686 139.314 266.686C142.314 269.687 144 273.757 144 278L128 278L128 262Z" fill="#FFA857"/>
<path d="M96 310C96 305.757 97.6857 301.687 100.686 298.686C103.687 295.686 107.757 294 112 294L112 310L96 310Z" fill="#FFA857"/>
<circle cx="136" cy="302" r="8" fill="#572C05"/>
</g>
<g clip-path="url(#clip5_610_5775)">
<circle cx="160" cy="230" r="16" fill="#572C05"/>
<path d="M176 230C179.165 230 182.258 230.938 184.889 232.696C187.52 234.455 189.571 236.953 190.782 239.877C191.993 242.801 192.31 246.018 191.693 249.121C191.075 252.225 189.551 255.076 187.314 257.314C185.076 259.551 182.225 261.075 179.121 261.693C176.018 262.31 172.801 261.993 169.877 260.782C166.953 259.571 164.455 257.52 162.696 254.889C160.938 252.258 160 249.165 160 246L176 246L176 230Z" fill="#FFA857"/>
<circle cx="152" cy="254" r="8" fill="#572C05"/>
<rect x="176" y="214" width="16" height="16" fill="#FFA857"/>
<rect x="192" y="214" width="16" height="16" fill="#572C05"/>
<rect x="208" y="230" width="16" height="32" fill="#572C05"/>
<circle cx="200" cy="254" r="8" fill="#572C05"/>
<path d="M192 230C196.243 230 200.313 231.686 203.314 234.686C206.314 237.687 208 241.757 208 246H192L192 230Z" fill="#FFA857"/>
<path d="M240 214C240 218.243 238.314 222.313 235.314 225.314C232.313 228.314 228.243 230 224 230C219.757 230 215.687 228.314 212.686 225.314C209.686 222.313 208 218.243 208 214L224 214H240Z" fill="#FFA857"/>
<path d="M224 230C228.243 230 232.313 231.686 235.314 234.686C238.314 237.687 240 241.757 240 246C240 250.243 238.314 254.313 235.314 257.314C232.313 260.314 228.243 262 224 262L224 246V230Z" fill="#FFA857"/>
<rect x="240" y="230" width="16" height="32" fill="#572C05"/>
<rect x="272" y="230" width="16" height="16" fill="#572C05"/>
<path d="M272 246C268.835 246 265.742 245.062 263.111 243.304C260.48 241.545 258.429 239.047 257.218 236.123C256.007 233.199 255.69 229.982 256.307 226.879C256.925 223.775 258.449 220.924 260.686 218.686C262.924 216.449 265.775 214.925 268.879 214.307C271.982 213.69 275.199 214.007 278.123 215.218C281.047 216.429 283.545 218.48 285.304 221.111C287.062 223.742 288 226.836 288 230L272 230L272 246Z" fill="#FFA857"/>
<path d="M240 230C240 225.757 241.686 221.687 244.686 218.686C247.687 215.686 251.757 214 256 214L256 230L240 230Z" fill="#FFA857"/>
<circle cx="280" cy="254" r="8" fill="#FFA857"/>
<circle cx="264" cy="254" r="8" fill="#572C05"/>
<rect x="176" y="262" width="16" height="16" fill="#FFA857"/>
<circle cx="176" cy="294" r="16" fill="#572C05"/>
<path d="M160 294C156.835 294 153.742 293.062 151.111 291.304C148.48 289.545 146.429 287.047 145.218 284.123C144.007 281.199 143.69 277.982 144.307 274.879C144.925 271.775 146.449 268.924 148.686 266.686C150.924 264.449 153.775 262.925 156.879 262.307C159.982 261.69 163.199 262.007 166.123 263.218C169.047 264.429 171.545 266.48 173.304 269.111C175.062 271.742 176 274.836 176 278L160 278L160 294Z" fill="#FFA857"/>
<path d="M160 294C160 296.101 159.586 298.182 158.782 300.123C157.978 302.064 156.799 303.828 155.314 305.314C153.828 306.799 152.064 307.978 150.123 308.782C148.182 309.586 146.101 310 144 310L144 294H160Z" fill="#FFA857"/>
<rect x="192" y="278" width="16" height="32" fill="#572C05"/>
<rect x="208" y="262" width="16" height="16" fill="#572C05"/>
<path d="M224 262C226.101 262 228.182 262.414 230.123 263.218C232.064 264.022 233.828 265.201 235.314 266.686C236.799 268.172 237.978 269.936 238.782 271.877C239.586 273.818 240 275.899 240 278L224 278L224 262Z" fill="#FFA857"/>
<path d="M208 294C208 289.757 209.686 285.687 212.686 282.686C215.687 279.686 219.757 278 224 278L224 294L208 294Z" fill="#FFA857"/>
<path d="M224 294C224 298.243 222.314 302.313 219.314 305.314C216.313 308.314 212.243 310 208 310L208 294H224Z" fill="#FFA857"/>
<circle cx="200" cy="270" r="8" fill="#FFA857"/>
<circle cx="232" cy="286" r="8" fill="#572C05"/>
<circle cx="232" cy="302" r="8" fill="#572C05"/>
<path d="M272 278C272 274.835 271.062 271.742 269.304 269.111C267.545 266.48 265.047 264.429 262.123 263.218C259.199 262.007 255.982 261.69 252.879 262.307C249.775 262.925 246.924 264.449 244.686 266.686C242.449 268.924 240.925 271.775 240.307 274.879C239.69 277.982 240.007 281.199 241.218 284.123C242.429 287.047 244.48 289.545 247.111 291.304C249.742 293.062 252.835 294 256 294L256 278H272Z" fill="#572C05"/>
<path d="M272 310C268.835 310 265.742 309.062 263.111 307.304C260.48 305.545 258.429 303.047 257.218 300.123C256.007 297.199 255.69 293.982 256.307 290.879C256.925 287.775 258.449 284.924 260.686 282.686C262.924 280.449 265.775 278.925 268.879 278.307C271.982 277.69 275.199 278.007 278.123 279.218C281.047 280.429 283.545 282.48 285.304 285.111C287.062 287.742 288 290.836 288 294L272 294L272 310Z" fill="#FFA857"/>
<path d="M272 262C276.243 262 280.313 263.686 283.314 266.686C286.314 269.687 288 273.757 288 278L272 278L272 262Z" fill="#FFA857"/>
<path d="M240 310C240 305.757 241.686 301.687 244.686 298.686C247.687 295.686 251.757 294 256 294L256 310L240 310Z" fill="#FFA857"/>
<circle cx="280" cy="302" r="8" fill="#572C05"/>
</g>
<defs>
<clipPath id="clip0_610_5775">
<rect width="144" height="96" fill="white" transform="translate(0 22)"/>
</clipPath>
<clipPath id="clip1_610_5775">
<rect width="144" height="96" fill="white" transform="translate(144 22)"/>
</clipPath>
<clipPath id="clip2_610_5775">
<rect width="144" height="96" fill="white" transform="translate(0 118)"/>
</clipPath>
<clipPath id="clip3_610_5775">
<rect width="144" height="96" fill="white" transform="translate(144 118)"/>
</clipPath>
<clipPath id="clip4_610_5775">
<rect width="144" height="96" fill="white" transform="translate(0 214)"/>
</clipPath>
<clipPath id="clip5_610_5775">
<rect width="144" height="96" fill="white" transform="translate(144 214)"/>
</clipPath>
</defs>
</svg>
