<svg width="140" height="40" viewBox="0 0 140 40" fill="none" xmlns="http://www.w3.org/2000/svg">
<path d="M50.7644 16.25V3.52271H55.5371C56.5149 3.52271 57.3352 3.705 57.998 4.06958C58.6651 4.43416 59.1684 4.93547 59.5082 5.57349C59.852 6.20736 60.024 6.92825 60.024 7.73613C60.024 8.5523 59.852 9.27732 59.5082 9.9112C59.1643 10.5451 58.6568 11.0443 57.9856 11.4089C57.3145 11.7693 56.4879 11.9496 55.506 11.9496H52.3429V10.0541H55.1953C55.767 10.0541 56.2352 9.9547 56.5998 9.75584C56.9644 9.55697 57.2337 9.28354 57.4077 8.93552C57.5858 8.58751 57.6749 8.18772 57.6749 7.73613C57.6749 7.28454 57.5858 6.88682 57.4077 6.54295C57.2337 6.19908 56.9623 5.93186 56.5936 5.74128C56.229 5.54656 55.7588 5.4492 55.1829 5.4492H53.07V16.25H50.7644Z" fill="#042543"/>
<path d="M65.1194 16.4178C64.3695 16.4178 63.6984 16.2251 63.1059 15.8398C62.5135 15.4545 62.0453 14.8952 61.7014 14.1619C61.3576 13.4286 61.1856 12.5379 61.1856 11.4897C61.1856 10.4291 61.3597 9.53419 61.7077 8.80502C62.0598 8.07171 62.5342 7.51862 63.1308 7.14575C63.7274 6.76874 64.3923 6.58023 65.1256 6.58023C65.6849 6.58023 66.1448 6.67552 66.5052 6.8661C66.8657 7.05253 67.1516 7.27833 67.3628 7.54348C67.5741 7.80449 67.7378 8.051 67.8538 8.283H67.947V6.70452H70.2029V16.25H67.9905V14.7461H67.8538C67.7378 14.9781 67.57 15.2246 67.3504 15.4856C67.1308 15.7425 66.8408 15.962 66.4804 16.1443C66.1199 16.3266 65.6663 16.4178 65.1194 16.4178ZM65.7471 14.5721C66.2235 14.5721 66.6295 14.4436 66.9651 14.1868C67.3007 13.9258 67.5555 13.5632 67.7295 13.0992C67.9035 12.6352 67.9905 12.0946 67.9905 11.4773C67.9905 10.8599 67.9035 10.3234 67.7295 9.8677C67.5596 9.41197 67.3069 9.05774 66.9713 8.80502C66.6399 8.5523 66.2318 8.42594 65.7471 8.42594C65.2458 8.42594 64.8273 8.55644 64.4918 8.81745C64.1562 9.07846 63.9034 9.4389 63.7336 9.89877C63.5637 10.3586 63.4788 10.8848 63.4788 11.4773C63.4788 12.0738 63.5637 12.6062 63.7336 13.0744C63.9076 13.5384 64.1624 13.905 64.498 14.1743C64.8377 14.4395 65.2541 14.5721 65.7471 14.5721Z" fill="#042543"/>
<path d="M80.7764 6.70452L77.3771 16.25H74.8913L71.4919 6.70452H73.8907L76.0844 13.7953H76.1839L78.3838 6.70452H80.7764Z" fill="#042543"/>
<path d="M86.1468 16.4364C85.2146 16.4364 84.4068 16.2313 83.7232 15.8212C83.0396 15.411 82.5093 14.8372 82.1323 14.0998C81.7594 13.3623 81.573 12.5006 81.573 11.5145C81.573 10.5285 81.7594 9.66469 82.1323 8.9231C82.5093 8.1815 83.0396 7.60562 83.7232 7.19547C84.4068 6.78531 85.2146 6.58023 86.1468 6.58023C87.079 6.58023 87.8869 6.78531 88.5705 7.19547C89.2541 7.60562 89.7823 8.1815 90.1552 8.9231C90.5322 9.66469 90.7207 10.5285 90.7207 11.5145C90.7207 12.5006 90.5322 13.3623 90.1552 14.0998C89.7823 14.8372 89.2541 15.411 88.5705 15.8212C87.8869 16.2313 87.079 16.4364 86.1468 16.4364ZM86.1593 14.6342C86.6647 14.6342 87.0873 14.4954 87.427 14.2178C87.7667 13.9361 88.0195 13.5591 88.1852 13.0868C88.355 12.6145 88.44 12.0883 88.44 11.5083C88.44 10.9242 88.355 10.3959 88.1852 9.92363C88.0195 9.44718 87.7667 9.0681 87.427 8.78638C87.0873 8.50465 86.6647 8.36379 86.1593 8.36379C85.6414 8.36379 85.2105 8.50465 84.8666 8.78638C84.5269 9.0681 84.2721 9.44718 84.1023 9.92363C83.9365 10.3959 83.8537 10.9242 83.8537 11.5083C83.8537 12.0883 83.9365 12.6145 84.1023 13.0868C84.2721 13.5591 84.5269 13.9361 84.8666 14.2178C85.2105 14.4954 85.6414 14.6342 86.1593 14.6342Z" fill="#042543"/>
<path d="M94.5297 10.6569V16.25H92.2801V6.70452H94.4303V8.32651H94.5422C94.7617 7.79206 95.1118 7.3674 95.5924 7.05254C96.0771 6.73767 96.6758 6.58023 97.3884 6.58023C98.0471 6.58023 98.6209 6.7211 99.1098 7.00282C99.6028 7.28454 99.984 7.69263 100.253 8.22707C100.527 8.76152 100.661 9.4099 100.657 10.1722V16.25H98.4076V10.5202C98.4076 9.8822 98.2419 9.38297 97.9104 9.02253C97.5831 8.66209 97.1295 8.48187 96.5494 8.48187C96.1559 8.48187 95.8058 8.56887 95.4992 8.74288C95.1968 8.91274 94.9585 9.15925 94.7845 9.4824C94.6147 9.80555 94.5297 10.1971 94.5297 10.6569Z" fill="#042543"/>
<path d="M106.82 16.4364C105.863 16.4364 105.036 16.2375 104.34 15.8398C103.649 15.438 103.116 14.8704 102.743 14.1371C102.37 13.3996 102.184 12.5316 102.184 11.5332C102.184 10.5513 102.37 9.68955 102.743 8.94795C103.12 8.20222 103.646 7.6222 104.322 7.2079C104.997 6.78945 105.79 6.58023 106.702 6.58023C107.29 6.58023 107.845 6.67552 108.367 6.8661C108.894 7.05253 109.358 7.34254 109.759 7.73613C110.165 8.12971 110.484 8.63101 110.716 9.24004C110.948 9.84491 111.064 10.5658 111.064 11.4027V12.0925H103.24V10.5761H108.908C108.904 10.1453 108.811 9.76205 108.628 9.42647C108.446 9.08674 108.191 8.81952 107.864 8.6248C107.541 8.43008 107.164 8.33272 106.733 8.33272C106.273 8.33272 105.869 8.44458 105.521 8.6683C105.173 8.88788 104.902 9.17789 104.707 9.53833C104.516 9.89463 104.419 10.2861 104.415 10.7129V12.0366C104.415 12.5917 104.516 13.0682 104.72 13.4659C104.923 13.8595 105.206 14.1619 105.571 14.3732C105.935 14.5804 106.362 14.6839 106.851 14.6839C107.178 14.6839 107.475 14.6384 107.74 14.5472C108.005 14.4519 108.235 14.3131 108.43 14.1308C108.624 13.9485 108.771 13.7228 108.871 13.4535L110.971 13.6896C110.839 14.2448 110.586 14.7295 110.213 15.1438C109.844 15.554 109.372 15.873 108.796 16.1008C108.22 16.3246 107.562 16.4364 106.82 16.4364Z" fill="#042543"/>
<path d="M51.218 36.25H50L54.6298 23.5227H55.8727L60.5025 36.25H59.2844L55.2947 25.0328H55.2077L51.218 36.25ZM52.0943 31.3716H58.4082V32.4156H52.0943V31.3716Z" fill="#042543"/>
<path d="M62.1038 36.25V26.7045H63.1789V28.1711H63.2597C63.4503 27.6906 63.7817 27.3032 64.254 27.009C64.7305 26.7107 65.2691 26.5616 65.8698 26.5616C65.961 26.5616 66.0625 26.5637 66.1743 26.5678C66.2862 26.5719 66.3794 26.5761 66.454 26.5802V27.7051C66.4043 27.6968 66.3173 27.6843 66.193 27.6678C66.0687 27.6512 65.934 27.6429 65.789 27.6429C65.2919 27.6429 64.8486 27.7486 64.4591 27.9598C64.0738 28.167 63.7693 28.4549 63.5456 28.8237C63.3219 29.1924 63.21 29.6129 63.21 30.0852V36.25H62.1038Z" fill="#042543"/>
<path d="M71.7514 26.7045V27.6678H67.1962V26.7045H71.7514ZM68.6193 24.4176H69.7317V33.758C69.7317 34.1557 69.8 34.4685 69.9368 34.6964C70.0735 34.9201 70.2516 35.0796 70.4712 35.1749C70.6908 35.266 70.9249 35.3116 71.1734 35.3116C71.3185 35.3116 71.4427 35.3033 71.5463 35.2867C71.6499 35.266 71.741 35.2453 71.8198 35.2246L72.0559 36.2251C71.9482 36.2665 71.8156 36.3038 71.6582 36.337C71.5007 36.3743 71.306 36.3929 71.074 36.3929C70.668 36.3929 70.2765 36.3038 69.8995 36.1257C69.5266 35.9475 69.22 35.6824 68.9797 35.3302C68.7394 34.9781 68.6193 34.541 68.6193 34.019V24.4176Z" fill="#042543"/>
<path d="M83.6932 36.424C82.5829 36.424 81.6114 36.1568 80.7786 35.6223C79.9459 35.0837 79.2975 34.3256 78.8335 33.3478C78.3736 32.3659 78.1437 31.2121 78.1437 29.8863C78.1437 28.8879 78.2783 27.9868 78.5476 27.183C78.8169 26.3793 79.196 25.6916 79.6849 25.1198C80.1779 24.5481 80.76 24.111 81.4311 23.8086C82.1023 23.502 82.8398 23.3487 83.6435 23.3487C84.3395 23.3487 84.9796 23.4585 85.5638 23.6781C86.1479 23.8976 86.6637 24.2001 87.1112 24.5854C87.5586 24.9665 87.9253 25.4078 88.2112 25.9091C88.5012 26.4062 88.698 26.9365 88.8015 27.5H87.6083C87.4965 27.0774 87.3266 26.6817 87.0988 26.313C86.8709 25.9401 86.5871 25.6149 86.2474 25.3373C85.9076 25.0556 85.5203 24.836 85.0853 24.6786C84.6502 24.5212 84.1697 24.4424 83.6435 24.4424C82.819 24.4424 82.0754 24.6579 81.4125 25.0888C80.7538 25.5196 80.2317 26.1411 79.8464 26.9531C79.4612 27.7651 79.2685 28.7429 79.2685 29.8863C79.2685 31.0257 79.4591 32.0013 79.8402 32.8134C80.2214 33.6254 80.7434 34.2489 81.4063 34.6839C82.0733 35.1148 82.8356 35.3302 83.6932 35.3302C84.497 35.3302 85.2033 35.15 85.8124 34.7896C86.4255 34.425 86.904 33.9154 87.2479 33.2608C87.5918 32.6062 87.7616 31.8439 87.7575 30.9739L87.9439 31.1292H83.9667V30.0852H88.8823V36.25H87.888L87.7637 34.2303H87.7078C87.2562 34.9429 86.701 35.4877 86.0423 35.8647C85.3836 36.2375 84.6005 36.424 83.6932 36.424Z" fill="#042543"/>
<path d="M94.6287 36.4488C93.8457 36.4488 93.16 36.2417 92.5717 35.8274C91.9834 35.4131 91.5236 34.8351 91.1921 34.0936C90.8648 33.352 90.7012 32.4881 90.7012 31.5021C90.7012 30.5202 90.8648 29.6605 91.1921 28.9231C91.5236 28.1815 91.9855 27.6056 92.5779 27.1955C93.1704 26.7812 93.8602 26.574 94.6474 26.574C95.2274 26.574 95.71 26.6776 96.0953 26.8847C96.4806 27.0877 96.7893 27.3405 97.0213 27.6429C97.2533 27.9453 97.4335 28.2395 97.562 28.5254H97.6614V26.7045H98.7738V36.25H97.6925V34.4788H97.562C97.4335 34.7689 97.2512 35.0672 97.0151 35.3737C96.7789 35.6762 96.4661 35.931 96.0767 36.1381C95.6914 36.3453 95.2087 36.4488 94.6287 36.4488ZM94.7592 35.4359C95.3765 35.4359 95.9027 35.2681 96.3377 34.9325C96.7727 34.5928 97.1042 34.1267 97.332 33.5342C97.564 32.9377 97.68 32.2541 97.68 31.4835C97.68 30.7212 97.5661 30.0479 97.3382 29.4638C97.1104 28.8755 96.7789 28.4156 96.3439 28.0841C95.9089 27.7486 95.3807 27.5808 94.7592 27.5808C94.1212 27.5808 93.5826 27.7548 93.1435 28.1028C92.7085 28.4467 92.377 28.9127 92.1491 29.501C91.9254 30.0893 91.8136 30.7502 91.8136 31.4835C91.8136 32.2251 91.9275 32.8942 92.1554 33.4907C92.3832 34.0873 92.7147 34.5617 93.1497 34.9139C93.5888 35.2619 94.1254 35.4359 94.7592 35.4359Z" fill="#042543"/>
<path d="M102.681 23.5227V36.25H101.575V23.5227H102.681Z" fill="#042543"/>
<path d="M106.364 23.5227V36.25H105.258V23.5227H106.364Z" fill="#042543"/>
<path d="M112.8 36.4488C111.909 36.4488 111.139 36.2417 110.488 35.8274C109.838 35.409 109.335 34.831 108.978 34.0936C108.626 33.352 108.45 32.4985 108.45 31.5332C108.45 30.572 108.626 29.7185 108.978 28.9728C109.335 28.2229 109.825 27.6367 110.451 27.2141C111.081 26.7874 111.808 26.574 112.632 26.574C113.15 26.574 113.649 26.6693 114.13 26.8599C114.611 27.0463 115.041 27.3343 115.423 27.7237C115.808 28.109 116.112 28.5958 116.336 29.1841C116.56 29.7683 116.672 30.4601 116.672 31.2597V31.8066H109.214V30.8309H115.541C115.541 30.2178 115.416 29.6668 115.168 29.1779C114.923 28.6849 114.582 28.2954 114.142 28.0096C113.707 27.7237 113.204 27.5808 112.632 27.5808C112.027 27.5808 111.495 27.7423 111.035 28.0655C110.575 28.3886 110.215 28.8154 109.954 29.3457C109.697 29.876 109.567 30.456 109.562 31.0857V31.6699C109.562 32.4281 109.693 33.0909 109.954 33.6585C110.219 34.222 110.594 34.6591 111.079 34.9698C111.563 35.2805 112.137 35.4359 112.8 35.4359C113.252 35.4359 113.647 35.3654 113.987 35.2246C114.331 35.0837 114.619 34.8952 114.851 34.6591C115.087 34.4188 115.265 34.1557 115.385 33.8698L116.436 34.2116C116.291 34.6135 116.052 34.9843 115.721 35.324C115.394 35.6637 114.983 35.9372 114.49 36.1443C114.002 36.3473 113.438 36.4488 112.8 36.4488Z" fill="#042543"/>
<path d="M118.759 36.25V26.7045H119.835V28.1711H119.915C120.106 27.6906 120.437 27.3032 120.91 27.009C121.386 26.7107 121.925 26.5616 122.525 26.5616C122.617 26.5616 122.718 26.5637 122.83 26.5678C122.942 26.5719 123.035 26.5761 123.11 26.5802V27.7051C123.06 27.6968 122.973 27.6843 122.849 27.6678C122.724 27.6512 122.59 27.6429 122.445 27.6429C121.947 27.6429 121.504 27.7486 121.115 27.9598C120.729 28.167 120.425 28.4549 120.201 28.8237C119.977 29.1924 119.866 29.6129 119.866 30.0852V36.25H118.759Z" fill="#042543"/>
<path d="M125.418 39.8295C125.198 39.8295 124.993 39.8088 124.803 39.7674C124.612 39.7259 124.461 39.6804 124.349 39.6307L124.647 38.655C125.024 38.771 125.36 38.8124 125.654 38.7793C125.948 38.7503 126.209 38.6177 126.437 38.3815C126.665 38.1495 126.868 37.7932 127.046 37.3127L127.394 36.3432L123.883 26.7045H125.082L127.916 34.7896H128.003L130.837 26.7045H132.036L127.997 37.7601C127.827 38.22 127.618 38.6032 127.369 38.9098C127.121 39.2205 126.833 39.4504 126.505 39.5996C126.182 39.7529 125.82 39.8295 125.418 39.8295Z" fill="#042543"/>
<rect x="10" y="20" width="10" height="20" fill="#042543"/>
<rect x="20" y="10" width="20" height="10" fill="#042543"/>
<circle cx="35" cy="25" r="5" fill="#042543"/>
<path d="M40 30C40 31.9778 39.4135 33.9112 38.3147 35.5557C37.2159 37.2002 35.6541 38.4819 33.8268 39.2388C31.9996 39.9957 29.9889 40.1937 28.0491 39.8079C26.1093 39.422 24.3275 38.4696 22.9289 37.0711C21.5304 35.6725 20.578 33.8907 20.1921 31.9509C19.8063 30.0111 20.0043 28.0004 20.7612 26.1732C21.5181 24.3459 22.7998 22.7841 24.4443 21.6853C26.0888 20.5865 28.0222 20 30 20V30H40Z" fill="#FFA857"/>
<path d="M20 10C20 7.34783 21.0536 4.8043 22.9289 2.92893C24.8043 1.05357 27.3478 2.84536e-07 30 0C32.6522 -2.84536e-07 35.1957 1.05357 37.0711 2.92893C38.9464 4.80429 40 7.34783 40 10L30 10L20 10Z" fill="#FFA857"/>
<circle cx="10" cy="10" r="10" fill="#FFA857"/>
<circle cx="5" cy="25" r="5" fill="#FFA857"/>
<circle cx="5" cy="35" r="5" fill="#FFA857"/>
</svg>
